<svg width="347" height="109" viewBox="0 0 347 109" fill="none" xmlns="http://www.w3.org/2000/svg">
<path d="M195 18.7734C190.582 18.7734 187 15.1917 187 10.7734V10.7734C187 6.35516 190.582 2.77344 195 2.77344L226 2.77344C230.418 2.77344 234 6.35516 234 10.7734V10.7734C234 15.1917 230.418 18.7734 226 18.7734L195 18.7734Z" fill="#00285F"/>
<path d="M75 105.773V89.7734H124V97.7734C124 102.192 120.418 105.773 116 105.773H75Z" fill="#00285F"/>
<path d="M50 61.7734C45.5817 61.7734 42 58.1917 42 53.7734V53.7734C42 49.3552 45.5817 45.7734 50 45.7734L172 45.7734V61.7734L50 61.7734Z" fill="#00285F"/>
<rect x="116.021" y="108.41" width="16" height="154.477" rx="8" transform="rotate(-128 116.021 108.41)" fill="#00285F"/>
<path d="M55.7061 58.8779C52.2244 61.5981 47.1968 60.9808 44.4767 57.4991L44.2855 57.2544C41.5653 53.7727 42.1826 48.7451 45.6642 46.025L92.2447 9.63235C95.7263 6.91219 100.754 7.52949 103.474 11.0111L103.665 11.2559C106.385 14.7376 105.768 19.7651 102.287 22.4853L55.7061 58.8779Z" fill="#00285F"/>
<rect x="281" y="18.7737" width="16" height="40" rx="8" transform="rotate(-90 281 18.7737)" fill="#00285F"/>
<path d="M8 105.774C3.58172 105.774 0 102.192 0 97.7737V97.7737C0 93.3554 3.58172 89.7737 8 89.7737H84V105.774H8Z" fill="#00285F"/>
<rect x="156" y="105.774" width="16" height="38" rx="8" transform="rotate(-90 156 105.774)" fill="#00285F"/>
<path d="M219 105.774C214.582 105.774 211 102.192 211 97.7737V97.7737C211 93.3554 214.582 89.7737 219 89.7737H281C285.418 89.7737 289 93.3554 289 97.7737V97.7737C289 102.192 285.418 105.774 281 105.774H219Z" fill="#00285F"/>
<path d="M236 61.7737C231.582 61.7737 228 58.192 228 53.7737V53.7737C228 49.3554 231.582 45.7737 236 45.7737L338 45.7737C342.418 45.7737 346 49.3554 346 53.7737V53.7737C346 58.192 342.418 61.7737 338 61.7737L236 61.7737Z" fill="#00285F"/>
<rect x="234.379" y="63.8271" width="16.3209" height="82.7824" rx="8" transform="rotate(-128 234.379 63.8271)" fill="#00285F"/>
<rect x="280.67" y="108.674" width="16.9022" height="83.2493" rx="8" transform="rotate(-128 280.67 108.674)" fill="#00285F"/>
</svg>
